<svg width="118" height="14" viewBox="0 0 118 14" fill="none" xmlns="http://www.w3.org/2000/svg">
<mask id="mask0_24_6" style="mask-type:luminance" maskUnits="userSpaceOnUse" x="0" y="0" width="118" height="14">
<path d="M118 0H0V14H118V0Z" fill="white"/>
</mask>
<g mask="url(#mask0_24_6)">
<path d="M0 0H20.3022V1.56856H3.91249V6.01965H19.19V7.58821H3.91249V12.4314H20.4255V14H0V0Z" fill="#161616"/>
<path d="M21.468 0H35.3048C38.1051 0 40.2872 0.32721 41.8521 0.98078C43.4441 1.63434 44.2402 2.52969 44.2402 3.66681C44.2402 4.51687 43.8281 5.26185 43.0048 5.90175C42.2087 6.5425 40.9186 6.97992 39.1337 7.21572V7.25502C39.9852 7.33362 40.6711 7.46433 41.1925 7.64716C41.742 7.82999 42.1673 8.05211 42.4693 8.31354C42.7987 8.56213 43.0321 8.84322 43.1694 9.15675C43.3341 9.47029 43.4574 9.79749 43.5402 10.1375C43.5948 10.4775 43.6361 10.8236 43.6635 11.1764C43.6907 11.5293 43.7594 11.8761 43.8695 12.2153C43.9796 12.5553 44.1302 12.8817 44.3221 13.196C44.5414 13.4968 44.8575 13.765 45.2697 14H40.9045C40.6297 13.8565 40.4378 13.66 40.3277 13.4113C40.2449 13.1628 40.1904 12.8886 40.163 12.5878C40.1358 12.2742 40.1085 11.9411 40.0803 11.5882C40.053 11.2354 39.9702 10.8885 39.8328 10.5494C39.7228 10.2094 39.5854 9.88895 39.4207 9.58824C39.2561 9.27471 38.9954 9.00644 38.6379 8.78429C38.2812 8.5493 37.8145 8.36565 37.2377 8.23494C36.661 8.09141 35.8921 8.01965 34.9315 8.01965H25.3778V14H21.4653V0H21.468ZM33.534 6.45109C34.44 6.45109 35.3048 6.41862 36.1281 6.35284C36.9515 6.28706 37.6657 6.16318 38.2697 5.98035C38.9011 5.78385 39.3952 5.52926 39.7519 5.21572C40.1358 4.88851 40.3286 4.47074 40.3286 3.9607C40.3286 3.25502 39.9165 2.68005 39.0931 2.23495C38.2697 1.79068 36.9383 1.56856 35.0988 1.56856H25.3805V6.45109H33.534Z" fill="#161616"/>
<path d="M45.953 0H59.7898C62.5892 0 64.7722 0.32721 66.3371 0.98078C67.9291 1.63434 68.7252 2.52969 68.7252 3.66681C68.7252 4.51687 68.3131 5.26185 67.4897 5.90175C66.6937 6.5425 65.4036 6.97992 63.6186 7.21572V7.25502C64.4701 7.33362 65.1561 7.46433 65.6775 7.64716C66.2261 7.82999 66.6523 8.05211 66.9543 8.31354C67.2837 8.56213 67.5171 8.84322 67.6544 9.15675C67.8191 9.47029 67.9424 9.79749 68.0252 10.1375C68.0797 10.4775 68.1211 10.8236 68.1484 11.1764C68.1757 11.5293 68.2444 11.8761 68.3545 12.2153C68.4645 12.5553 68.6152 12.8817 68.8071 13.196C69.0263 13.4968 69.3425 13.765 69.7546 14H65.3895C65.1147 13.8565 64.9228 13.66 64.8127 13.4113C64.7299 13.1628 64.6753 12.8886 64.648 12.5878C64.6208 12.2742 64.5934 11.9411 64.5661 11.5882C64.5389 11.2354 64.4561 10.8885 64.3187 10.5494C64.2086 10.2094 64.0713 9.88895 63.9066 9.58824C63.7419 9.27471 63.4813 9.00644 63.1237 8.78429C62.7671 8.5493 62.3003 8.36565 61.7236 8.23494C61.1468 8.09141 60.3781 8.01965 59.4173 8.01965H49.8637V14H45.9512V0H45.953ZM58.0181 6.45109C58.9241 6.45109 59.7889 6.41862 60.6122 6.35284C61.4356 6.28706 62.1498 6.16318 62.7539 5.98035C63.3852 5.78385 63.8793 5.52926 64.2368 5.21572C64.6208 4.88851 64.8136 4.47074 64.8136 3.9607C64.8136 3.25502 64.4015 2.68005 63.5781 2.23495C62.7547 1.79068 61.4233 1.56856 59.5837 1.56856H49.8655V6.45109H58.0189H58.0181Z" fill="#161616"/>
<path d="M94.7611 13.9641L92.1512 12.2734L81.9265 5.64716L94.322 0H89.2567L74.3498 6.98078V0H70.4373V14H74.3498V9.09782L79.2503 6.92183L89.8745 14H90.7386H94.7333H94.8157L94.7611 13.9641Z" fill="#161616"/>
<path d="M106.511 0H102.187L92.5789 11.7497L95.1757 13.4335L98.0294 9.78382H110.465L113.677 13.9992H118.001L106.511 0ZM99.2623 8.21529L104.246 1.68561H104.328L109.228 8.21529H99.2623Z" fill="#161616"/>
</g>
</svg>
