<?xml version="1.0" encoding="UTF-8"?>
<svg id="Layer_1" xmlns="http://www.w3.org/2000/svg" version="1.1" viewBox="0 0 23 33.7">
  <!-- Generator: Adobe Illustrator 29.0.1, SVG Export Plug-In . SVG Version: 2.1.0 Build 192)  -->
  <defs>
    <style>
      .st0 {
        fill: #eef6e8;
      }
    </style>
  </defs>
  <path id="Path_44" class="st0" d="M22.6,21c-.6-.6-1.6-.6-2.2,0,0,0,0,0,0,0l-7.3,7.3V1.5c0-.9-.7-1.6-1.6-1.5-.8,0-1.5.7-1.5,1.5v26.7l-7.2-7.2c-.6-.6-1.6-.6-2.2,0-.6.6-.6,1.6,0,2.2l10,10c.5.6,1.4.6,2,0,0,0,0,0,0,0l10.1-10c.6-.6.6-1.6,0-2.2,0,0,0,0,0,0Z"/>
</svg>